<?xml version="1.0" encoding="UTF-8" standalone="no"?>
<!DOCTYPE svg PUBLIC "-//W3C//DTD SVG 1.1//EN"
 "http://www.w3.org/Graphics/SVG/1.1/DTD/svg11.dtd">
<!-- Generated by graphviz version 2.43.0 (0)
 -->
<!-- Title: %3 Pages: 1 -->
<svg width="827pt" height="525pt"
 viewBox="0.00 0.00 827.00 525.00" xmlns="http://www.w3.org/2000/svg" xmlns:xlink="http://www.w3.org/1999/xlink">
<g id="graph0" class="graph" transform="scale(1 1) rotate(0) translate(4 521)">
<title>%3</title>
<polygon fill="white" stroke="transparent" points="-4,4 -4,-521 823,-521 823,4 -4,4"/>
<g id="clust1" class="cluster">
<title>cluster_a</title>
<polygon fill="white" stroke="white" points="8,-8 8,-502 346,-502 346,-8 8,-8"/>
<text text-anchor="middle" x="152" y="-484.4" font-family="Helvetica,sans-Serif" font-weight="bold" font-size="17.00">(a) Two&#45;stage filtering (X→Y)</text>
</g>
<g id="clust3" class="cluster">
<title>cluster_b</title>
<polygon fill="white" stroke="white" points="354,-229 354,-509 611,-509 611,-229 354,-229"/>
<text text-anchor="middle" x="482.5" y="-491.4" font-family="Helvetica,sans-Serif" font-weight="bold" font-size="17.00">(b) Unfiltered single&#45;pass</text>
</g>
<g id="clust4" class="cluster">
<title>cluster_c</title>
<polygon fill="white" stroke="white" points="619,-22 619,-502 811,-502 811,-22 619,-22"/>
<text text-anchor="middle" x="714.5" y="-484.4" font-family="Helvetica,sans-Serif" font-weight="bold" font-size="17.00">(c) Ranked variant</text>
</g>
<!-- a_news -->
<g id="node1" class="node">
<title>a_news</title>
<polygon fill="#ececff" stroke="#333333" stroke-width="1.2" points="330.5,-467 189.5,-467 189.5,-431 330.5,-431 330.5,-467"/>
<text text-anchor="middle" x="260" y="-453" font-family="Helvetica,sans-Serif" font-size="12.50">News articles</text>
<text text-anchor="middle" x="260" y="-439" font-family="Helvetica,sans-Serif" font-size="12.50">(financial&#45;news API)</text>
</g>
<!-- a_scr -->
<g id="node2" class="node">
<title>a_scr</title>
<polygon fill="#d9d9ff" stroke="#333333" stroke-width="1.2" points="317.5,-370 202.5,-370 202.5,-334 317.5,-334 317.5,-370"/>
<text text-anchor="middle" x="260" y="-356" font-family="Helvetica,sans-Serif" font-size="12.50">News relevance</text>
<text text-anchor="middle" x="260" y="-342" font-family="Helvetica,sans-Serif" font-size="12.50">screening</text>
</g>
<!-- a_news&#45;&gt;a_scr -->
<g id="edge1" class="edge">
<title>a_news&#45;&gt;a_scr</title>
<path fill="none" stroke="#333333" d="M260,-430.58C260,-416.65 260,-396.86 260,-380.76"/>
<polygon fill="#333333" stroke="#333333" points="263.5,-380.31 260,-370.31 256.5,-380.31 263.5,-380.31"/>
</g>
<!-- a_s1 -->
<g id="node3" class="node">
<title>a_s1</title>
<polygon fill="#d9d9ff" stroke="#333333" stroke-width="1.2" points="338,-280 182,-280 182,-230 338,-230 338,-280"/>
<text text-anchor="middle" x="260" y="-266" font-family="Helvetica,sans-Serif" font-size="12.50">Stage One</text>
<text text-anchor="middle" x="260" y="-252" font-family="Helvetica,sans-Serif" font-size="12.50">Generate X candidate</text>
<text text-anchor="middle" x="260" y="-238" font-family="Helvetica,sans-Serif" font-size="12.50">stocks + justifications</text>
</g>
<!-- a_scr&#45;&gt;a_s1 -->
<g id="edge2" class="edge">
<title>a_scr&#45;&gt;a_s1</title>
<path fill="none" stroke="#333333" d="M260,-333.58C260,-321.51 260,-305.04 260,-290.38"/>
<polygon fill="#333333" stroke="#333333" points="263.5,-290.11 260,-280.11 256.5,-290.11 263.5,-290.11"/>
</g>
<!-- a_s2 -->
<g id="node5" class="node">
<title>a_s2</title>
<polygon fill="#d9d9ff" stroke="#333333" stroke-width="1.2" points="242,-170 108,-170 108,-120 242,-120 242,-170"/>
<text text-anchor="middle" x="175" y="-156" font-family="Helvetica,sans-Serif" font-size="12.50">Stage Two</text>
<text text-anchor="middle" x="175" y="-142" font-family="Helvetica,sans-Serif" font-size="12.50">Validate vs reports</text>
<text text-anchor="middle" x="175" y="-128" font-family="Helvetica,sans-Serif" font-size="12.50">→ Y held stocks</text>
</g>
<!-- a_s1&#45;&gt;a_s2 -->
<g id="edge3" class="edge">
<title>a_s1&#45;&gt;a_s2</title>
<path fill="none" stroke="#333333" d="M240.92,-229.76C229,-214.62 213.51,-194.93 200.53,-178.44"/>
<polygon fill="#333333" stroke="#333333" points="202.95,-175.85 194.01,-170.16 197.45,-180.18 202.95,-175.85"/>
<text text-anchor="middle" x="267" y="-207.4" font-family="Helvetica,sans-Serif" font-size="9.50"> &#160;X → Y filtering</text>
<text text-anchor="middle" x="267" y="-197.4" font-family="Helvetica,sans-Serif" font-size="9.50"> &#160;30→15 · 20→10</text>
<text text-anchor="middle" x="267" y="-187.4" font-family="Helvetica,sans-Serif" font-size="9.50"> &#160;10→5 · 5→3</text>
</g>
<!-- a_rep -->
<g id="node4" class="node">
<title>a_rep</title>
<polygon fill="#ececff" stroke="#333333" stroke-width="1.2" points="160,-273 16,-273 16,-237 160,-237 160,-273"/>
<text text-anchor="middle" x="88" y="-259" font-family="Helvetica,sans-Serif" font-size="12.50">Financial reports</text>
<text text-anchor="middle" x="88" y="-245" font-family="Helvetica,sans-Serif" font-size="12.50">for the X candidates</text>
</g>
<!-- a_rep&#45;&gt;a_s2 -->
<g id="edge4" class="edge">
<title>a_rep&#45;&gt;a_s2</title>
<path fill="none" stroke="#333333" d="M101.98,-236.65C114.67,-220.89 133.71,-197.25 149.17,-178.07"/>
<polygon fill="#333333" stroke="#333333" points="152,-180.13 155.54,-170.15 146.55,-175.74 152,-180.13"/>
</g>
<!-- a_ev -->
<g id="node6" class="node">
<title>a_ev</title>
<polygon fill="#e3f0e3" stroke="#333333" stroke-width="1.2" points="251,-80 99,-80 99,-16 251,-16 251,-80"/>
<text text-anchor="middle" x="175" y="-66" font-family="Helvetica,sans-Serif" font-size="12.50">Portfolio construction</text>
<text text-anchor="middle" x="175" y="-52" font-family="Helvetica,sans-Serif" font-size="12.50">&amp; evaluation</text>
<text text-anchor="middle" x="175" y="-38" font-family="Helvetica,sans-Serif" font-size="12.50">→ ROI, excess return</text>
<text text-anchor="middle" x="175" y="-24" font-family="Helvetica,sans-Serif" font-size="12.50">vs S&amp;P 500</text>
</g>
<!-- a_s2&#45;&gt;a_ev -->
<g id="edge5" class="edge">
<title>a_s2&#45;&gt;a_ev</title>
<path fill="none" stroke="#333333" d="M175,-119.54C175,-110.64 175,-100.32 175,-90.37"/>
<polygon fill="#333333" stroke="#333333" points="178.5,-90.21 175,-80.21 171.5,-90.21 178.5,-90.21"/>
<text text-anchor="middle" x="200.5" y="-97.4" font-family="Helvetica,sans-Serif" font-size="9.50">Y holdings</text>
</g>
<!-- b_news -->
<g id="node7" class="node">
<title>b_news</title>
<polygon fill="#ececff" stroke="#333333" stroke-width="1.2" points="533.5,-474 430.5,-474 430.5,-424 533.5,-424 533.5,-474"/>
<text text-anchor="middle" x="482" y="-460" font-family="Helvetica,sans-Serif" font-size="12.50">News articles</text>
<text text-anchor="middle" x="482" y="-446" font-family="Helvetica,sans-Serif" font-size="12.50">+ all financial</text>
<text text-anchor="middle" x="482" y="-432" font-family="Helvetica,sans-Serif" font-size="12.50">reports</text>
</g>
<!-- b_llm -->
<g id="node8" class="node">
<title>b_llm</title>
<polygon fill="#d9d9ff" stroke="#333333" stroke-width="1.2" points="549,-384 415,-384 415,-320 549,-320 549,-384"/>
<text text-anchor="middle" x="482" y="-370" font-family="Helvetica,sans-Serif" font-size="12.50">Single LLM prompt</text>
<text text-anchor="middle" x="482" y="-356" font-family="Helvetica,sans-Serif" font-size="12.50">(no screening,</text>
<text text-anchor="middle" x="482" y="-342" font-family="Helvetica,sans-Serif" font-size="12.50">no staging)</text>
<text text-anchor="middle" x="482" y="-328" font-family="Helvetica,sans-Serif" font-size="12.50">→ Y held stocks</text>
</g>
<!-- b_news&#45;&gt;b_llm -->
<g id="edge6" class="edge">
<title>b_news&#45;&gt;b_llm</title>
<path fill="none" stroke="#333333" d="M482,-423.54C482,-414.64 482,-404.32 482,-394.37"/>
<polygon fill="#333333" stroke="#333333" points="485.5,-394.21 482,-384.21 478.5,-394.21 485.5,-394.21"/>
<text text-anchor="middle" x="510" y="-401.4" font-family="Helvetica,sans-Serif" font-size="9.50">one prompt</text>
</g>
<!-- b_ev -->
<g id="node9" class="node">
<title>b_ev</title>
<polygon fill="#e3f0e3" stroke="#333333" stroke-width="1.2" points="558,-273 406,-273 406,-237 558,-237 558,-273"/>
<text text-anchor="middle" x="482" y="-259" font-family="Helvetica,sans-Serif" font-size="12.50">Portfolio construction</text>
<text text-anchor="middle" x="482" y="-245" font-family="Helvetica,sans-Serif" font-size="12.50">&amp; evaluation</text>
</g>
<!-- b_llm&#45;&gt;b_ev -->
<g id="edge7" class="edge">
<title>b_llm&#45;&gt;b_ev</title>
<path fill="none" stroke="#333333" d="M482,-319.89C482,-308.08 482,-294.73 482,-283.3"/>
<polygon fill="#333333" stroke="#333333" points="485.5,-283.04 482,-273.04 478.5,-283.04 485.5,-283.04"/>
<text text-anchor="middle" x="507.5" y="-297.4" font-family="Helvetica,sans-Serif" font-size="9.50">Y holdings</text>
</g>
<!-- c_news -->
<g id="node10" class="node">
<title>c_news</title>
<polygon fill="#ececff" stroke="#333333" stroke-width="1.2" points="785.5,-467 644.5,-467 644.5,-431 785.5,-431 785.5,-467"/>
<text text-anchor="middle" x="715" y="-453" font-family="Helvetica,sans-Serif" font-size="12.50">News articles</text>
<text text-anchor="middle" x="715" y="-439" font-family="Helvetica,sans-Serif" font-size="12.50">(financial&#45;news API)</text>
</g>
<!-- c_scr -->
<g id="node11" class="node">
<title>c_scr</title>
<polygon fill="#d9d9ff" stroke="#333333" stroke-width="1.2" points="772.5,-370 657.5,-370 657.5,-334 772.5,-334 772.5,-370"/>
<text text-anchor="middle" x="715" y="-356" font-family="Helvetica,sans-Serif" font-size="12.50">News relevance</text>
<text text-anchor="middle" x="715" y="-342" font-family="Helvetica,sans-Serif" font-size="12.50">screening</text>
</g>
<!-- c_news&#45;&gt;c_scr -->
<g id="edge8" class="edge">
<title>c_news&#45;&gt;c_scr</title>
<path fill="none" stroke="#333333" d="M715,-430.58C715,-416.65 715,-396.86 715,-380.76"/>
<polygon fill="#333333" stroke="#333333" points="718.5,-380.31 715,-370.31 711.5,-380.31 718.5,-380.31"/>
</g>
<!-- c_s1 -->
<g id="node12" class="node">
<title>c_s1</title>
<polygon fill="#d9d9ff" stroke="#333333" stroke-width="1.2" points="802.5,-280 627.5,-280 627.5,-230 802.5,-230 802.5,-280"/>
<text text-anchor="middle" x="715" y="-266" font-family="Helvetica,sans-Serif" font-size="12.50">Single stage</text>
<text text-anchor="middle" x="715" y="-252" font-family="Helvetica,sans-Serif" font-size="12.50">Generate + rank all</text>
<text text-anchor="middle" x="715" y="-238" font-family="Helvetica,sans-Serif" font-size="12.50">candidates by conviction</text>
</g>
<!-- c_scr&#45;&gt;c_s1 -->
<g id="edge9" class="edge">
<title>c_scr&#45;&gt;c_s1</title>
<path fill="none" stroke="#333333" d="M715,-333.58C715,-321.51 715,-305.04 715,-290.38"/>
<polygon fill="#333333" stroke="#333333" points="718.5,-290.11 715,-280.11 711.5,-290.11 718.5,-290.11"/>
</g>
<!-- c_top -->
<g id="node13" class="node">
<title>c_top</title>
<polygon fill="#d9d9ff" stroke="#333333" stroke-width="1.2" points="755,-163 675,-163 675,-127 755,-127 755,-163"/>
<text text-anchor="middle" x="715" y="-149" font-family="Helvetica,sans-Serif" font-size="12.50">Take top Y</text>
<text text-anchor="middle" x="715" y="-135" font-family="Helvetica,sans-Serif" font-size="12.50">by rank</text>
</g>
<!-- c_s1&#45;&gt;c_top -->
<g id="edge10" class="edge">
<title>c_s1&#45;&gt;c_top</title>
<path fill="none" stroke="#333333" d="M715,-229.76C715,-212.97 715,-190.6 715,-173.2"/>
<polygon fill="#333333" stroke="#333333" points="718.5,-173.1 715,-163.1 711.5,-173.1 718.5,-173.1"/>
<text text-anchor="middle" x="741" y="-197.4" font-family="Helvetica,sans-Serif" font-size="9.50">ranked list</text>
</g>
<!-- c_ev -->
<g id="node14" class="node">
<title>c_ev</title>
<polygon fill="#e3f0e3" stroke="#333333" stroke-width="1.2" points="791,-66 639,-66 639,-30 791,-30 791,-66"/>
<text text-anchor="middle" x="715" y="-52" font-family="Helvetica,sans-Serif" font-size="12.50">Portfolio construction</text>
<text text-anchor="middle" x="715" y="-38" font-family="Helvetica,sans-Serif" font-size="12.50">&amp; evaluation</text>
</g>
<!-- c_top&#45;&gt;c_ev -->
<g id="edge11" class="edge">
<title>c_top&#45;&gt;c_ev</title>
<path fill="none" stroke="#333333" d="M715,-126.58C715,-112.65 715,-92.86 715,-76.76"/>
<polygon fill="#333333" stroke="#333333" points="718.5,-76.31 715,-66.31 711.5,-76.31 718.5,-76.31"/>
<text text-anchor="middle" x="740.5" y="-97.4" font-family="Helvetica,sans-Serif" font-size="9.50">Y holdings</text>
</g>
</g>
</svg>
